<?xml version="1.0" encoding="UTF-8" standalone="no"?>
<!DOCTYPE svg PUBLIC "-//W3C//DTD SVG 1.1//EN" "http://www.w3.org/Graphics/SVG/1.1/DTD/svg11.dtd">
<svg width="982" height="982" xmlns="http://www.w3.org/2000/svg" xmlns:xlink="http://www.w3.org/1999/xlink"  viewBox="0.00 0.00 982 982">

<g>
<line x1="982.48" y1="502.66" x2="975.79" y2="502.66" stroke="black" stroke-width="1"/>
<line x1="975.79" y1="502.66" x2="975.79" y2="514.80" stroke="black" stroke-width="1"/>
<line x1="975.79" y1="514.80" x2="978.46" y2="514.80" stroke="black" stroke-width="1"/>
<line x1="978.46" y1="514.80" x2="978.46" y2="527.06" stroke="black" stroke-width="1"/>
<line x1="978.46" y1="527.06" x2="980.52" y2="527.06" stroke="black" stroke-width="1"/>
<line x1="980.52" y1="527.06" x2="980.52" y2="539.36" stroke="black" stroke-width="1"/>
<line x1="980.52" y1="539.36" x2="981.37" y2="539.36" stroke="black" stroke-width="1"/>
<line x1="981.37" y1="539.36" x2="981.37" y2="551.52" stroke="black" stroke-width="1"/>
<line x1="981.37" y1="551.52" x2="979.97" y2="551.52" stroke="black" stroke-width="1"/>
<line x1="979.97" y1="551.52" x2="979.97" y2="563.81" stroke="black" stroke-width="1"/>
<line x1="979.97" y1="563.81" x2="979.63" y2="563.81" stroke="black" stroke-width="1"/>
<line x1="979.63" y1="563.81" x2="979.63" y2="574.77" stroke="black" stroke-width="1"/>
<line x1="979.63" y1="574.77" x2="970.49" y2="574.77" stroke="black" stroke-width="1"/>
<line x1="970.49" y1="574.77" x2="970.49" y2="587.47" stroke="black" stroke-width="1"/>
<line x1="970.49" y1="587.47" x2="972.82" y2="587.47" stroke="black" stroke-width="1"/>
<line x1="972.82" y1="587.47" x2="972.82" y2="598.22" stroke="black" stroke-width="1"/>
<line x1="972.82" y1="598.22" x2="964.78" y2="598.22" stroke="black" stroke-width="1"/>
<line x1="964.78" y1="598.22" x2="964.78" y2="611.06" stroke="black" stroke-width="1"/>
<line x1="964.78" y1="611.06" x2="966.71" y2="611.06" stroke="black" stroke-width="1"/>
<line x1="966.71" y1="611.06" x2="966.71" y2="621.91" stroke="black" stroke-width="1"/>
<line x1="966.71" y1="621.91" x2="960.23" y2="621.91" stroke="black" stroke-width="1"/>
<line x1="960.23" y1="621.91" x2="960.23" y2="633.37" stroke="black" stroke-width="1"/>
<line x1="960.23" y1="633.37" x2="956.44" y2="633.37" stroke="black" stroke-width="1"/>
<line x1="956.44" y1="633.37" x2="956.44" y2="647.07" stroke="black" stroke-width="1"/>
<line x1="956.44" y1="647.07" x2="959.72" y2="647.07" stroke="black" stroke-width="1"/>
<line x1="959.72" y1="647.07" x2="959.72" y2="656.99" stroke="black" stroke-width="1"/>
<line x1="959.72" y1="656.99" x2="951.04" y2="656.99" stroke="black" stroke-width="1"/>
<line x1="951.04" y1="656.99" x2="951.04" y2="667.97" stroke="black" stroke-width="1"/>
<line x1="951.04" y1="667.97" x2="945.86" y2="667.97" stroke="black" stroke-width="1"/>
<line x1="945.86" y1="667.97" x2="945.86" y2="682.11" stroke="black" stroke-width="1"/>
<line x1="945.86" y1="682.11" x2="948.61" y2="682.11" stroke="black" stroke-width="1"/>
<line x1="948.61" y1="682.11" x2="948.61" y2="691.16" stroke="black" stroke-width="1"/>
<line x1="948.61" y1="691.16" x2="938.66" y2="691.16" stroke="black" stroke-width="1"/>
<line x1="938.66" y1="691.16" x2="938.66" y2="701.56" stroke="black" stroke-width="1"/>
<line x1="938.66" y1="701.56" x2="932.29" y2="701.56" stroke="black" stroke-width="1"/>
<line x1="932.29" y1="701.56" x2="932.29" y2="714.10" stroke="black" stroke-width="1"/>
<line x1="932.29" y1="714.10" x2="930.36" y2="714.10" stroke="black" stroke-width="1"/>
<line x1="930.36" y1="714.10" x2="930.36" y2="722.81" stroke="black" stroke-width="1"/>
<line x1="930.36" y1="722.81" x2="920.79" y2="722.81" stroke="black" stroke-width="1"/>
<line x1="920.79" y1="722.81" x2="920.79" y2="734.03" stroke="black" stroke-width="1"/>
<line x1="920.79" y1="734.03" x2="916.14" y2="734.03" stroke="black" stroke-width="1"/>
<line x1="916.14" y1="734.03" x2="916.14" y2="747.39" stroke="black" stroke-width="1"/>
<line x1="916.14" y1="747.39" x2="914.94" y2="747.39" stroke="black" stroke-width="1"/>
<line x1="914.94" y1="747.39" x2="914.94" y2="754.04" stroke="black" stroke-width="1"/>
<line x1="914.94" y1="754.04" x2="902.54" y2="754.04" stroke="black" stroke-width="1"/>
<line x1="902.54" y1="754.04" x2="902.54" y2="768.81" stroke="black" stroke-width="1"/>
<line x1="902.54" y1="768.81" x2="902.95" y2="768.81" stroke="black" stroke-width="1"/>
<line x1="902.95" y1="768.81" x2="902.95" y2="776.73" stroke="black" stroke-width="1"/>
<line x1="902.95" y1="776.73" x2="892.89" y2="776.73" stroke="black" stroke-width="1"/>
<line x1="892.89" y1="776.73" x2="892.89" y2="784.82" stroke="black" stroke-width="1"/>
<line x1="892.89" y1="784.82" x2="883.36" y2="784.82" stroke="black" stroke-width="1"/>
<line x1="883.36" y1="784.82" x2="883.36" y2="793.49" stroke="black" stroke-width="1"/>
<line x1="883.36" y1="793.49" x2="874.81" y2="793.49" stroke="black" stroke-width="1"/>
<line x1="874.81" y1="793.49" x2="874.81" y2="802.91" stroke="black" stroke-width="1"/>
<line x1="874.81" y1="802.91" x2="867.27" y2="802.91" stroke="black" stroke-width="1"/>
<line x1="867.27" y1="802.91" x2="867.27" y2="816.99" stroke="black" stroke-width="1"/>
<line x1="867.27" y1="816.99" x2="865.10" y2="816.99" stroke="black" stroke-width="1"/>
<line x1="865.10" y1="816.99" x2="865.10" y2="822.35" stroke="black" stroke-width="1"/>
<line x1="865.10" y1="822.35" x2="852.80" y2="822.35" stroke="black" stroke-width="1"/>
<line x1="852.80" y1="822.35" x2="852.80" y2="832.20" stroke="black" stroke-width="1"/>
<line x1="852.80" y1="832.20" x2="845.58" y2="832.20" stroke="black" stroke-width="1"/>
<line x1="845.58" y1="832.20" x2="845.58" y2="840.18" stroke="black" stroke-width="1"/>
<line x1="845.58" y1="840.18" x2="836.40" y2="840.18" stroke="black" stroke-width="1"/>
<line x1="836.40" y1="840.18" x2="836.40" y2="846.92" stroke="black" stroke-width="1"/>
<line x1="836.40" y1="846.92" x2="826.09" y2="846.92" stroke="black" stroke-width="1"/>
<line x1="826.09" y1="846.92" x2="826.09" y2="861.14" stroke="black" stroke-width="1"/>
<line x1="826.09" y1="861.14" x2="822.62" y2="861.14" stroke="black" stroke-width="1"/>
<line x1="822.62" y1="861.14" x2="822.62" y2="864.10" stroke="black" stroke-width="1"/>
<line x1="822.62" y1="864.10" x2="809.05" y2="864.10" stroke="black" stroke-width="1"/>
<line x1="809.05" y1="864.10" x2="809.05" y2="872.31" stroke="black" stroke-width="1"/>
<line x1="809.05" y1="872.31" x2="800.12" y2="872.31" stroke="black" stroke-width="1"/>
<line x1="800.12" y1="872.31" x2="800.12" y2="884.00" stroke="black" stroke-width="1"/>
<line x1="800.12" y1="884.00" x2="793.82" y2="884.00" stroke="black" stroke-width="1"/>
<line x1="793.82" y1="884.00" x2="793.82" y2="885.76" stroke="black" stroke-width="1"/>
<line x1="793.82" y1="885.76" x2="779.95" y2="885.76" stroke="black" stroke-width="1"/>
<line x1="779.95" y1="885.76" x2="779.95" y2="898.38" stroke="black" stroke-width="1"/>
<line x1="779.95" y1="898.38" x2="773.99" y2="898.38" stroke="black" stroke-width="1"/>
<line x1="773.99" y1="898.38" x2="773.99" y2="904.55" stroke="black" stroke-width="1"/>
<line x1="773.99" y1="904.55" x2="763.39" y2="904.55" stroke="black" stroke-width="1"/>
<line x1="763.39" y1="904.55" x2="763.39" y2="910.70" stroke="black" stroke-width="1"/>
<line x1="763.39" y1="910.70" x2="752.81" y2="910.70" stroke="black" stroke-width="1"/>
<line x1="752.81" y1="910.70" x2="752.81" y2="913.44" stroke="black" stroke-width="1"/>
<line x1="752.81" y1="913.44" x2="740.27" y2="913.44" stroke="black" stroke-width="1"/>
<line x1="740.27" y1="913.44" x2="740.27" y2="919.96" stroke="black" stroke-width="1"/>
<line x1="740.27" y1="919.96" x2="730.03" y2="919.96" stroke="black" stroke-width="1"/>
<line x1="730.03" y1="919.96" x2="730.03" y2="925.01" stroke="black" stroke-width="1"/>
<line x1="730.03" y1="925.01" x2="718.99" y2="925.01" stroke="black" stroke-width="1"/>
<line x1="718.99" y1="925.01" x2="718.99" y2="930.02" stroke="black" stroke-width="1"/>
<line x1="718.99" y1="930.02" x2="707.96" y2="930.02" stroke="black" stroke-width="1"/>
<line x1="707.96" y1="930.02" x2="707.96" y2="937.33" stroke="black" stroke-width="1"/>
<line x1="707.96" y1="937.33" x2="697.98" y2="937.33" stroke="black" stroke-width="1"/>
<line x1="697.98" y1="937.33" x2="697.98" y2="941.30" stroke="black" stroke-width="1"/>
<line x1="697.98" y1="941.30" x2="686.46" y2="941.30" stroke="black" stroke-width="1"/>
<line x1="686.46" y1="941.30" x2="686.46" y2="942.77" stroke="black" stroke-width="1"/>
<line x1="686.46" y1="942.77" x2="674.00" y2="942.77" stroke="black" stroke-width="1"/>
<line x1="674.00" y1="942.77" x2="674.00" y2="947.45" stroke="black" stroke-width="1"/>
<line x1="674.00" y1="947.45" x2="662.87" y2="947.45" stroke="black" stroke-width="1"/>
<line x1="662.87" y1="947.45" x2="662.87" y2="958.98" stroke="black" stroke-width="1"/>
<line x1="662.87" y1="958.98" x2="654.02" y2="958.98" stroke="black" stroke-width="1"/>
<line x1="654.02" y1="958.98" x2="654.02" y2="960.77" stroke="black" stroke-width="1"/>
<line x1="654.02" y1="960.77" x2="641.74" y2="960.77" stroke="black" stroke-width="1"/>
<line x1="641.74" y1="960.77" x2="641.74" y2="963.61" stroke="black" stroke-width="1"/>
<line x1="641.74" y1="963.61" x2="629.85" y2="963.61" stroke="black" stroke-width="1"/>
<line x1="629.85" y1="963.61" x2="629.85" y2="963.50" stroke="black" stroke-width="1"/>
<line x1="629.85" y1="963.50" x2="617.24" y2="963.50" stroke="black" stroke-width="1"/>
<line x1="617.24" y1="963.50" x2="617.24" y2="968.13" stroke="black" stroke-width="1"/>
<line x1="617.24" y1="968.13" x2="605.87" y2="968.13" stroke="black" stroke-width="1"/>
<line x1="605.87" y1="968.13" x2="605.87" y2="974.12" stroke="black" stroke-width="1"/>
<line x1="605.87" y1="974.12" x2="594.67" y2="974.12" stroke="black" stroke-width="1"/>
<line x1="594.67" y1="974.12" x2="594.67" y2="970.10" stroke="black" stroke-width="1"/>
<line x1="594.67" y1="970.10" x2="581.54" y2="970.10" stroke="black" stroke-width="1"/>
<line x1="581.54" y1="970.10" x2="581.54" y2="973.35" stroke="black" stroke-width="1"/>
<line x1="581.54" y1="973.35" x2="569.80" y2="973.35" stroke="black" stroke-width="1"/>
<line x1="569.80" y1="973.35" x2="569.80" y2="972.00" stroke="black" stroke-width="1"/>
<line x1="569.80" y1="972.00" x2="557.43" y2="972.00" stroke="black" stroke-width="1"/>
<line x1="557.43" y1="972.00" x2="557.43" y2="982.73" stroke="black" stroke-width="1"/>
<line x1="557.43" y1="982.73" x2="546.36" y2="982.73" stroke="black" stroke-width="1"/>
<line x1="546.36" y1="982.73" x2="546.36" y2="979.34" stroke="black" stroke-width="1"/>
<line x1="546.36" y1="979.34" x2="533.80" y2="979.34" stroke="black" stroke-width="1"/>
<line x1="533.80" y1="979.34" x2="533.80" y2="982.94" stroke="black" stroke-width="1"/>
<line x1="533.80" y1="982.94" x2="521.78" y2="982.94" stroke="black" stroke-width="1"/>
<line x1="521.78" y1="982.94" x2="521.78" y2="974.94" stroke="black" stroke-width="1"/>
<line x1="521.78" y1="974.94" x2="509.37" y2="974.94" stroke="black" stroke-width="1"/>
<line x1="509.37" y1="974.94" x2="509.37" y2="977.00" stroke="black" stroke-width="1"/>
<line x1="509.37" y1="977.00" x2="497.33" y2="977.00" stroke="black" stroke-width="1"/>
<line x1="497.33" y1="977.00" x2="497.33" y2="974.88" stroke="black" stroke-width="1"/>
<line x1="497.33" y1="974.88" x2="485.30" y2="974.88" stroke="black" stroke-width="1"/>
<line x1="485.30" y1="974.88" x2="485.30" y2="978.88" stroke="black" stroke-width="1"/>
<line x1="485.30" y1="978.88" x2="473.02" y2="978.88" stroke="black" stroke-width="1"/>
<line x1="473.02" y1="978.88" x2="473.02" y2="981.77" stroke="black" stroke-width="1"/>
<line x1="473.02" y1="981.77" x2="460.59" y2="981.77" stroke="black" stroke-width="1"/>
<line x1="460.59" y1="981.77" x2="460.59" y2="977.03" stroke="black" stroke-width="1"/>
<line x1="460.59" y1="977.03" x2="448.79" y2="977.03" stroke="black" stroke-width="1"/>
<line x1="448.79" y1="977.03" x2="448.79" y2="978.74" stroke="black" stroke-width="1"/>
<line x1="448.79" y1="978.74" x2="436.30" y2="978.74" stroke="black" stroke-width="1"/>
<line x1="436.30" y1="978.74" x2="436.30" y2="977.49" stroke="black" stroke-width="1"/>
<line x1="436.30" y1="977.49" x2="424.11" y2="977.49" stroke="black" stroke-width="1"/>
<line x1="424.11" y1="977.49" x2="424.11" y2="972.57" stroke="black" stroke-width="1"/>
<line x1="424.11" y1="972.57" x2="412.56" y2="972.57" stroke="black" stroke-width="1"/>
<line x1="412.56" y1="972.57" x2="412.56" y2="970.13" stroke="black" stroke-width="1"/>
<line x1="412.56" y1="970.13" x2="400.63" y2="970.13" stroke="black" stroke-width="1"/>
<line x1="400.63" y1="970.13" x2="400.63" y2="964.07" stroke="black" stroke-width="1"/>
<line x1="400.63" y1="964.07" x2="389.56" y2="964.07" stroke="black" stroke-width="1"/>
<line x1="389.56" y1="964.07" x2="389.56" y2="960.30" stroke="black" stroke-width="1"/>
<line x1="389.56" y1="960.30" x2="378.06" y2="960.30" stroke="black" stroke-width="1"/>
<line x1="378.06" y1="960.30" x2="378.06" y2="958.51" stroke="black" stroke-width="1"/>
<line x1="378.06" y1="958.51" x2="366.02" y2="958.51" stroke="black" stroke-width="1"/>
<line x1="366.02" y1="958.51" x2="366.02" y2="961.50" stroke="black" stroke-width="1"/>
<line x1="366.02" y1="961.50" x2="352.36" y2="961.50" stroke="black" stroke-width="1"/>
<line x1="352.36" y1="961.50" x2="352.36" y2="949.54" stroke="black" stroke-width="1"/>
<line x1="352.36" y1="949.54" x2="343.52" y2="949.54" stroke="black" stroke-width="1"/>
<line x1="343.52" y1="949.54" x2="343.52" y2="953.23" stroke="black" stroke-width="1"/>
<line x1="343.52" y1="953.23" x2="329.24" y2="953.23" stroke="black" stroke-width="1"/>
<line x1="329.24" y1="953.23" x2="329.24" y2="940.55" stroke="black" stroke-width="1"/>
<line x1="329.24" y1="940.55" x2="321.15" y2="940.55" stroke="black" stroke-width="1"/>
<line x1="321.15" y1="940.55" x2="321.15" y2="942.69" stroke="black" stroke-width="1"/>
<line x1="321.15" y1="942.69" x2="307.08" y2="942.69" stroke="black" stroke-width="1"/>
<line x1="307.08" y1="942.69" x2="307.08" y2="932.08" stroke="black" stroke-width="1"/>
<line x1="307.08" y1="932.08" x2="298.53" y2="932.08" stroke="black" stroke-width="1"/>
<line x1="298.53" y1="932.08" x2="298.53" y2="926.98" stroke="black" stroke-width="1"/>
<line x1="298.53" y1="926.98" x2="287.58" y2="926.98" stroke="black" stroke-width="1"/>
<line x1="287.58" y1="926.98" x2="287.58" y2="921.12" stroke="black" stroke-width="1"/>
<line x1="287.58" y1="921.12" x2="277.01" y2="921.12" stroke="black" stroke-width="1"/>
<line x1="277.01" y1="921.12" x2="277.01" y2="920.44" stroke="black" stroke-width="1"/>
<line x1="277.01" y1="920.44" x2="263.54" y2="920.44" stroke="black" stroke-width="1"/>
<line x1="263.54" y1="920.44" x2="263.54" y2="911.35" stroke="black" stroke-width="1"/>
<line x1="263.54" y1="911.35" x2="254.74" y2="911.35" stroke="black" stroke-width="1"/>
<line x1="254.74" y1="911.35" x2="254.74" y2="907.61" stroke="black" stroke-width="1"/>
<line x1="254.74" y1="907.61" x2="242.75" y2="907.61" stroke="black" stroke-width="1"/>
<line x1="242.75" y1="907.61" x2="242.75" y2="900.36" stroke="black" stroke-width="1"/>
<line x1="242.75" y1="900.36" x2="232.91" y2="900.36" stroke="black" stroke-width="1"/>
<line x1="232.91" y1="900.36" x2="232.91" y2="896.49" stroke="black" stroke-width="1"/>
<line x1="232.91" y1="896.49" x2="220.72" y2="896.49" stroke="black" stroke-width="1"/>
<line x1="220.72" y1="896.49" x2="220.72" y2="881.40" stroke="black" stroke-width="1"/>
<line x1="220.72" y1="881.40" x2="216.62" y2="881.40" stroke="black" stroke-width="1"/>
<line x1="216.62" y1="881.40" x2="216.62" y2="874.22" stroke="black" stroke-width="1"/>
<line x1="216.62" y1="874.22" x2="206.96" y2="874.22" stroke="black" stroke-width="1"/>
<line x1="206.96" y1="874.22" x2="206.96" y2="868.65" stroke="black" stroke-width="1"/>
<line x1="206.96" y1="868.65" x2="195.95" y2="868.65" stroke="black" stroke-width="1"/>
<line x1="195.95" y1="868.65" x2="195.95" y2="861.75" stroke="black" stroke-width="1"/>
<line x1="195.95" y1="861.75" x2="185.90" y2="861.75" stroke="black" stroke-width="1"/>
<line x1="185.90" y1="861.75" x2="185.90" y2="857.44" stroke="black" stroke-width="1"/>
<line x1="185.90" y1="857.44" x2="173.40" y2="857.44" stroke="black" stroke-width="1"/>
<line x1="173.40" y1="857.44" x2="173.40" y2="845.39" stroke="black" stroke-width="1"/>
<line x1="173.40" y1="845.39" x2="167.97" y2="845.39" stroke="black" stroke-width="1"/>
<line x1="167.97" y1="845.39" x2="167.97" y2="838.94" stroke="black" stroke-width="1"/>
<line x1="167.97" y1="838.94" x2="157.23" y2="838.94" stroke="black" stroke-width="1"/>
<line x1="157.23" y1="838.94" x2="157.23" y2="826.36" stroke="black" stroke-width="1"/>
<line x1="157.23" y1="826.36" x2="152.79" y2="826.36" stroke="black" stroke-width="1"/>
<line x1="152.79" y1="826.36" x2="152.79" y2="817.21" stroke="black" stroke-width="1"/>
<line x1="152.79" y1="817.21" x2="144.91" y2="817.21" stroke="black" stroke-width="1"/>
<line x1="144.91" y1="817.21" x2="144.91" y2="812.27" stroke="black" stroke-width="1"/>
<line x1="144.91" y1="812.27" x2="132.10" y2="812.27" stroke="black" stroke-width="1"/>
<line x1="132.10" y1="812.27" x2="132.10" y2="800.84" stroke="black" stroke-width="1"/>
<line x1="132.10" y1="800.84" x2="126.80" y2="800.84" stroke="black" stroke-width="1"/>
<line x1="126.80" y1="800.84" x2="126.80" y2="789.99" stroke="black" stroke-width="1"/>
<line x1="126.80" y1="789.99" x2="120.99" y2="789.99" stroke="black" stroke-width="1"/>
<line x1="120.99" y1="789.99" x2="120.99" y2="779.08" stroke="black" stroke-width="1"/>
<line x1="120.99" y1="779.08" x2="115.44" y2="779.08" stroke="black" stroke-width="1"/>
<line x1="115.44" y1="779.08" x2="115.44" y2="773.42" stroke="black" stroke-width="1"/>
<line x1="115.44" y1="773.42" x2="102.42" y2="773.42" stroke="black" stroke-width="1"/>
<line x1="102.42" y1="773.42" x2="102.42" y2="760.53" stroke="black" stroke-width="1"/>
<line x1="102.42" y1="760.53" x2="99.82" y2="760.53" stroke="black" stroke-width="1"/>
<line x1="99.82" y1="760.53" x2="99.82" y2="752.89" stroke="black" stroke-width="1"/>
<line x1="99.82" y1="752.89" x2="89.16" y2="752.89" stroke="black" stroke-width="1"/>
<line x1="89.16" y1="752.89" x2="89.16" y2="741.72" stroke="black" stroke-width="1"/>
<line x1="89.16" y1="741.72" x2="84.05" y2="741.72" stroke="black" stroke-width="1"/>
<line x1="84.05" y1="741.72" x2="84.05" y2="729.17" stroke="black" stroke-width="1"/>
<line x1="84.05" y1="729.17" x2="81.59" y2="729.17" stroke="black" stroke-width="1"/>
<line x1="81.59" y1="729.17" x2="81.59" y2="720.55" stroke="black" stroke-width="1"/>
<line x1="81.59" y1="720.55" x2="71.95" y2="720.55" stroke="black" stroke-width="1"/>
<line x1="71.95" y1="720.55" x2="71.95" y2="708.20" stroke="black" stroke-width="1"/>
<line x1="71.95" y1="708.20" x2="69.46" y2="708.20" stroke="black" stroke-width="1"/>
<line x1="69.46" y1="708.20" x2="69.46" y2="699.88" stroke="black" stroke-width="1"/>
<line x1="69.46" y1="699.88" x2="58.47" y2="699.88" stroke="black" stroke-width="1"/>
<line x1="58.47" y1="699.88" x2="58.47" y2="687.43" stroke="black" stroke-width="1"/>
<line x1="58.47" y1="687.43" x2="56.39" y2="687.43" stroke="black" stroke-width="1"/>
<line x1="56.39" y1="687.43" x2="56.39" y2="675.28" stroke="black" stroke-width="1"/>
<line x1="56.39" y1="675.28" x2="53.94" y2="675.28" stroke="black" stroke-width="1"/>
<line x1="53.94" y1="675.28" x2="53.94" y2="665.76" stroke="black" stroke-width="1"/>
<line x1="53.94" y1="665.76" x2="44.62" y2="665.76" stroke="black" stroke-width="1"/>
<line x1="44.62" y1="665.76" x2="44.62" y2="652.53" stroke="black" stroke-width="1"/>
<line x1="44.62" y1="652.53" x2="45.44" y2="652.53" stroke="black" stroke-width="1"/>
<line x1="45.44" y1="652.53" x2="45.44" y2="641.36" stroke="black" stroke-width="1"/>
<line x1="45.44" y1="641.36" x2="40.46" y2="641.36" stroke="black" stroke-width="1"/>
<line x1="40.46" y1="641.36" x2="40.46" y2="628.37" stroke="black" stroke-width="1"/>
<line x1="40.46" y1="628.37" x2="41.65" y2="628.37" stroke="black" stroke-width="1"/>
<line x1="41.65" y1="628.37" x2="41.65" y2="618.63" stroke="black" stroke-width="1"/>
<line x1="41.65" y1="618.63" x2="31.01" y2="618.63" stroke="black" stroke-width="1"/>
<line x1="31.01" y1="618.63" x2="31.01" y2="606.74" stroke="black" stroke-width="1"/>
<line x1="31.01" y1="606.74" x2="28.02" y2="606.74" stroke="black" stroke-width="1"/>
<line x1="28.02" y1="606.74" x2="28.02" y2="593.18" stroke="black" stroke-width="1"/>
<line x1="28.02" y1="593.18" x2="33.33" y2="593.18" stroke="black" stroke-width="1"/>
<line x1="33.33" y1="593.18" x2="33.33" y2="581.59" stroke="black" stroke-width="1"/>
<line x1="33.33" y1="581.59" x2="29.62" y2="581.59" stroke="black" stroke-width="1"/>
<line x1="29.62" y1="581.59" x2="29.62" y2="569.41" stroke="black" stroke-width="1"/>
<line x1="29.62" y1="569.41" x2="29.28" y2="569.41" stroke="black" stroke-width="1"/>
<line x1="29.28" y1="569.41" x2="29.28" y2="558.20" stroke="black" stroke-width="1"/>
<line x1="29.28" y1="558.20" x2="21.60" y2="558.20" stroke="black" stroke-width="1"/>
<line x1="21.60" y1="558.20" x2="21.60" y2="545.86" stroke="black" stroke-width="1"/>
<line x1="21.60" y1="545.86" x2="22.45" y2="545.86" stroke="black" stroke-width="1"/>
<line x1="22.45" y1="545.86" x2="22.45" y2="533.92" stroke="black" stroke-width="1"/>
<line x1="22.45" y1="533.92" x2="18.91" y2="533.92" stroke="black" stroke-width="1"/>
<line x1="18.91" y1="533.92" x2="18.91" y2="521.67" stroke="black" stroke-width="1"/>
<line x1="18.91" y1="521.67" x2="19.41" y2="521.67" stroke="black" stroke-width="1"/>
<line x1="19.41" y1="521.67" x2="19.41" y2="509.38" stroke="black" stroke-width="1"/>
<line x1="19.41" y1="509.38" x2="24.48" y2="509.38" stroke="black" stroke-width="1"/>
<line x1="24.48" y1="509.38" x2="24.48" y2="502.49" stroke="black" stroke-width="1"/>
<line x1="24.48" y1="502.49" x2="945.32" y2="502.49" stroke="black" stroke-width="1"/>
<line x1="945.32" y1="502.49" x2="945.32" y2="485.04" stroke="black" stroke-width="1"/>
<line x1="945.32" y1="485.04" x2="16.81" y2="485.04" stroke="black" stroke-width="1"/>
<line x1="16.81" y1="485.04" x2="16.81" y2="472.75" stroke="black" stroke-width="1"/>
<line x1="16.81" y1="472.75" x2="16.24" y2="472.75" stroke="black" stroke-width="1"/>
<line x1="16.24" y1="472.75" x2="16.24" y2="461.25" stroke="black" stroke-width="1"/>
<line x1="16.24" y1="461.25" x2="26.19" y2="461.25" stroke="black" stroke-width="1"/>
<line x1="26.19" y1="461.25" x2="26.19" y2="449.16" stroke="black" stroke-width="1"/>
<line x1="26.19" y1="449.16" x2="26.41" y2="449.16" stroke="black" stroke-width="1"/>
<line x1="26.41" y1="449.16" x2="26.41" y2="437.01" stroke="black" stroke-width="1"/>
<line x1="26.41" y1="437.01" x2="26.58" y2="437.01" stroke="black" stroke-width="1"/>
<line x1="26.58" y1="437.01" x2="26.58" y2="424.80" stroke="black" stroke-width="1"/>
<line x1="26.58" y1="424.80" x2="26.85" y2="424.80" stroke="black" stroke-width="1"/>
<line x1="26.85" y1="424.80" x2="26.85" y2="412.91" stroke="black" stroke-width="1"/>
<line x1="26.85" y1="412.91" x2="29.31" y2="412.91" stroke="black" stroke-width="1"/>
<line x1="29.31" y1="412.91" x2="29.31" y2="399.94" stroke="black" stroke-width="1"/>
<line x1="29.31" y1="399.94" x2="26.59" y2="399.94" stroke="black" stroke-width="1"/>
<line x1="26.59" y1="399.94" x2="26.59" y2="388.60" stroke="black" stroke-width="1"/>
<line x1="26.59" y1="388.60" x2="31.87" y2="388.60" stroke="black" stroke-width="1"/>
<line x1="31.87" y1="388.60" x2="31.87" y2="377.02" stroke="black" stroke-width="1"/>
<line x1="31.87" y1="377.02" x2="35.76" y2="377.02" stroke="black" stroke-width="1"/>
<line x1="35.76" y1="377.02" x2="35.76" y2="366.17" stroke="black" stroke-width="1"/>
<line x1="35.76" y1="366.17" x2="41.99" y2="366.17" stroke="black" stroke-width="1"/>
<line x1="41.99" y1="366.17" x2="41.99" y2="354.14" stroke="black" stroke-width="1"/>
<line x1="41.99" y1="354.14" x2="44.08" y2="354.14" stroke="black" stroke-width="1"/>
<line x1="44.08" y1="354.14" x2="44.08" y2="340.93" stroke="black" stroke-width="1"/>
<line x1="44.08" y1="340.93" x2="43.00" y2="340.93" stroke="black" stroke-width="1"/>
<line x1="43.00" y1="340.93" x2="43.00" y2="331.86" stroke="black" stroke-width="1"/>
<line x1="43.00" y1="331.86" x2="53.69" y2="331.86" stroke="black" stroke-width="1"/>
<line x1="53.69" y1="331.86" x2="53.69" y2="319.75" stroke="black" stroke-width="1"/>
<line x1="53.69" y1="319.75" x2="55.98" y2="319.75" stroke="black" stroke-width="1"/>
<line x1="55.98" y1="319.75" x2="55.98" y2="309.88" stroke="black" stroke-width="1"/>
<line x1="55.98" y1="309.88" x2="63.73" y2="309.88" stroke="black" stroke-width="1"/>
<line x1="63.73" y1="309.88" x2="63.73" y2="297.61" stroke="black" stroke-width="1"/>
<line x1="63.73" y1="297.61" x2="65.94" y2="297.61" stroke="black" stroke-width="1"/>
<line x1="65.94" y1="297.61" x2="65.94" y2="284.44" stroke="black" stroke-width="1"/>
<line x1="65.94" y1="284.44" x2="66.71" y2="284.44" stroke="black" stroke-width="1"/>
<line x1="66.71" y1="284.44" x2="66.71" y2="274.93" stroke="black" stroke-width="1"/>
<line x1="66.71" y1="274.93" x2="74.95" y2="274.93" stroke="black" stroke-width="1"/>
<line x1="74.95" y1="274.93" x2="74.95" y2="262.89" stroke="black" stroke-width="1"/>
<line x1="74.95" y1="262.89" x2="78.39" y2="262.89" stroke="black" stroke-width="1"/>
<line x1="78.39" y1="262.89" x2="78.39" y2="256.48" stroke="black" stroke-width="1"/>
<line x1="78.39" y1="256.48" x2="91.57" y2="256.48" stroke="black" stroke-width="1"/>
<line x1="91.57" y1="256.48" x2="91.57" y2="246.41" stroke="black" stroke-width="1"/>
<line x1="91.57" y1="246.41" x2="98.18" y2="246.41" stroke="black" stroke-width="1"/>
<line x1="98.18" y1="246.41" x2="98.18" y2="234.74" stroke="black" stroke-width="1"/>
<line x1="98.18" y1="234.74" x2="102.38" y2="234.74" stroke="black" stroke-width="1"/>
<line x1="102.38" y1="234.74" x2="102.38" y2="222.50" stroke="black" stroke-width="1"/>
<line x1="102.38" y1="222.50" x2="106.03" y2="222.50" stroke="black" stroke-width="1"/>
<line x1="106.03" y1="222.50" x2="106.03" y2="212.90" stroke="black" stroke-width="1"/>
<line x1="106.03" y1="212.90" x2="113.57" y2="212.90" stroke="black" stroke-width="1"/>
<line x1="113.57" y1="212.90" x2="113.57" y2="202.55" stroke="black" stroke-width="1"/>
<line x1="113.57" y1="202.55" x2="120.14" y2="202.55" stroke="black" stroke-width="1"/>
<line x1="120.14" y1="202.55" x2="120.14" y2="196.23" stroke="black" stroke-width="1"/>
<line x1="120.14" y1="196.23" x2="131.68" y2="196.23" stroke="black" stroke-width="1"/>
<line x1="131.68" y1="196.23" x2="131.68" y2="186.47" stroke="black" stroke-width="1"/>
<line x1="131.68" y1="186.47" x2="138.89" y2="186.47" stroke="black" stroke-width="1"/>
<line x1="138.89" y1="186.47" x2="138.89" y2="177.08" stroke="black" stroke-width="1"/>
<line x1="138.89" y1="177.08" x2="146.57" y2="177.08" stroke="black" stroke-width="1"/>
<line x1="146.57" y1="177.08" x2="146.57" y2="168.04" stroke="black" stroke-width="1"/>
<line x1="146.57" y1="168.04" x2="154.67" y2="168.04" stroke="black" stroke-width="1"/>
<line x1="154.67" y1="168.04" x2="154.67" y2="157.37" stroke="black" stroke-width="1"/>
<line x1="154.67" y1="157.37" x2="161.18" y2="157.37" stroke="black" stroke-width="1"/>
<line x1="161.18" y1="157.37" x2="161.18" y2="149.41" stroke="black" stroke-width="1"/>
<line x1="161.18" y1="149.41" x2="170.45" y2="149.41" stroke="black" stroke-width="1"/>
<line x1="170.45" y1="149.41" x2="170.45" y2="141.92" stroke="black" stroke-width="1"/>
<line x1="170.45" y1="141.92" x2="180.11" y2="141.92" stroke="black" stroke-width="1"/>
<line x1="180.11" y1="141.92" x2="180.11" y2="134.00" stroke="black" stroke-width="1"/>
<line x1="180.11" y1="134.00" x2="189.34" y2="134.00" stroke="black" stroke-width="1"/>
<line x1="189.34" y1="134.00" x2="189.34" y2="122.82" stroke="black" stroke-width="1"/>
<line x1="189.34" y1="122.82" x2="195.95" y2="122.82" stroke="black" stroke-width="1"/>
<line x1="195.95" y1="122.82" x2="195.95" y2="114.87" stroke="black" stroke-width="1"/>
<line x1="195.95" y1="114.87" x2="205.32" y2="114.87" stroke="black" stroke-width="1"/>
<line x1="205.32" y1="114.87" x2="205.32" y2="114.02" stroke="black" stroke-width="1"/>
<line x1="205.32" y1="114.02" x2="219.88" y2="114.02" stroke="black" stroke-width="1"/>
<line x1="219.88" y1="114.02" x2="219.88" y2="107.34" stroke="black" stroke-width="1"/>
<line x1="219.88" y1="107.34" x2="229.95" y2="107.34" stroke="black" stroke-width="1"/>
<line x1="229.95" y1="107.34" x2="229.95" y2="96.52" stroke="black" stroke-width="1"/>
<line x1="229.95" y1="96.52" x2="237.31" y2="96.52" stroke="black" stroke-width="1"/>
<line x1="237.31" y1="96.52" x2="237.31" y2="94.49" stroke="black" stroke-width="1"/>
<line x1="237.31" y1="94.49" x2="250.38" y2="94.49" stroke="black" stroke-width="1"/>
<line x1="250.38" y1="94.49" x2="250.38" y2="82.02" stroke="black" stroke-width="1"/>
<line x1="250.38" y1="82.02" x2="257.09" y2="82.02" stroke="black" stroke-width="1"/>
<line x1="257.09" y1="82.02" x2="257.09" y2="76.40" stroke="black" stroke-width="1"/>
<line x1="257.09" y1="76.40" x2="267.97" y2="76.40" stroke="black" stroke-width="1"/>
<line x1="267.97" y1="76.40" x2="267.97" y2="70.94" stroke="black" stroke-width="1"/>
<line x1="267.97" y1="70.94" x2="278.92" y2="70.94" stroke="black" stroke-width="1"/>
<line x1="278.92" y1="70.94" x2="278.92" y2="70.82" stroke="black" stroke-width="1"/>
<line x1="278.92" y1="70.82" x2="292.45" y2="70.82" stroke="black" stroke-width="1"/>
<line x1="292.45" y1="70.82" x2="292.45" y2="62.91" stroke="black" stroke-width="1"/>
<line x1="292.45" y1="62.91" x2="302.12" y2="62.91" stroke="black" stroke-width="1"/>
<line x1="302.12" y1="62.91" x2="302.12" y2="57.25" stroke="black" stroke-width="1"/>
<line x1="302.12" y1="57.25" x2="312.93" y2="57.25" stroke="black" stroke-width="1"/>
<line x1="312.93" y1="57.25" x2="312.93" y2="56.21" stroke="black" stroke-width="1"/>
<line x1="312.93" y1="56.21" x2="325.60" y2="56.21" stroke="black" stroke-width="1"/>
<line x1="325.60" y1="56.21" x2="325.60" y2="45.77" stroke="black" stroke-width="1"/>
<line x1="325.60" y1="45.77" x2="334.65" y2="45.77" stroke="black" stroke-width="1"/>
<line x1="334.65" y1="45.77" x2="334.65" y2="42.08" stroke="black" stroke-width="1"/>
<line x1="334.65" y1="42.08" x2="346.33" y2="42.08" stroke="black" stroke-width="1"/>
<line x1="346.33" y1="42.08" x2="346.33" y2="38.34" stroke="black" stroke-width="1"/>
<line x1="346.33" y1="38.34" x2="357.98" y2="38.34" stroke="black" stroke-width="1"/>
<line x1="357.98" y1="38.34" x2="357.98" y2="38.95" stroke="black" stroke-width="1"/>
<line x1="357.98" y1="38.95" x2="370.86" y2="38.95" stroke="black" stroke-width="1"/>
<line x1="370.86" y1="38.95" x2="370.86" y2="37.82" stroke="black" stroke-width="1"/>
<line x1="370.86" y1="37.82" x2="383.08" y2="37.82" stroke="black" stroke-width="1"/>
<line x1="383.08" y1="37.82" x2="383.08" y2="31.91" stroke="black" stroke-width="1"/>
<line x1="383.08" y1="31.91" x2="394.13" y2="31.91" stroke="black" stroke-width="1"/>
<line x1="394.13" y1="31.91" x2="394.13" y2="31.06" stroke="black" stroke-width="1"/>
<line x1="394.13" y1="31.06" x2="406.36" y2="31.06" stroke="black" stroke-width="1"/>
<line x1="406.36" y1="31.06" x2="406.36" y2="26.77" stroke="black" stroke-width="1"/>
<line x1="406.36" y1="26.77" x2="417.91" y2="26.77" stroke="black" stroke-width="1"/>
<line x1="417.91" y1="26.77" x2="417.91" y2="28.35" stroke="black" stroke-width="1"/>
<line x1="417.91" y1="28.35" x2="430.44" y2="28.35" stroke="black" stroke-width="1"/>
<line x1="430.44" y1="28.35" x2="430.44" y2="24.90" stroke="black" stroke-width="1"/>
<line x1="430.44" y1="24.90" x2="442.19" y2="24.90" stroke="black" stroke-width="1"/>
<line x1="442.19" y1="24.90" x2="442.19" y2="19.80" stroke="black" stroke-width="1"/>
<line x1="442.19" y1="19.80" x2="453.88" y2="19.80" stroke="black" stroke-width="1"/>
<line x1="453.88" y1="19.80" x2="453.88" y2="18.85" stroke="black" stroke-width="1"/>
<line x1="453.88" y1="18.85" x2="466.06" y2="18.85" stroke="black" stroke-width="1"/>
<line x1="466.06" y1="18.85" x2="466.06" y2="16.46" stroke="black" stroke-width="1"/>
<line x1="466.06" y1="16.46" x2="478.18" y2="16.46" stroke="black" stroke-width="1"/>
<line x1="478.18" y1="16.46" x2="478.18" y2="23.19" stroke="black" stroke-width="1"/>
<line x1="478.18" y1="23.19" x2="490.58" y2="23.19" stroke="black" stroke-width="1"/>
<line x1="490.58" y1="23.19" x2="490.58" y2="17.69" stroke="black" stroke-width="1"/>
<line x1="490.58" y1="17.69" x2="502.69" y2="17.69" stroke="black" stroke-width="1"/>
<line x1="502.69" y1="17.69" x2="502.69" y2="19.14" stroke="black" stroke-width="1"/>
<line x1="502.69" y1="19.14" x2="514.87" y2="19.14" stroke="black" stroke-width="1"/>
<line x1="514.87" y1="19.14" x2="514.87" y2="17.57" stroke="black" stroke-width="1"/>
<line x1="514.87" y1="17.57" x2="527.17" y2="17.57" stroke="black" stroke-width="1"/>
<line x1="527.17" y1="17.57" x2="527.17" y2="17.02" stroke="black" stroke-width="1"/>
<line x1="527.17" y1="17.02" x2="539.49" y2="17.02" stroke="black" stroke-width="1"/>
<line x1="539.49" y1="17.02" x2="539.49" y2="26.30" stroke="black" stroke-width="1"/>
<line x1="539.49" y1="26.30" x2="550.85" y2="26.30" stroke="black" stroke-width="1"/>
<line x1="550.85" y1="26.30" x2="550.85" y2="22.02" stroke="black" stroke-width="1"/>
<line x1="550.85" y1="22.02" x2="563.59" y2="22.02" stroke="black" stroke-width="1"/>
<line x1="563.59" y1="22.02" x2="563.59" y2="29.58" stroke="black" stroke-width="1"/>
<line x1="563.59" y1="29.58" x2="574.76" y2="29.58" stroke="black" stroke-width="1"/>
<line x1="574.76" y1="29.58" x2="574.76" y2="25.34" stroke="black" stroke-width="1"/>
<line x1="574.76" y1="25.34" x2="587.81" y2="25.34" stroke="black" stroke-width="1"/>
<line x1="587.81" y1="25.34" x2="587.81" y2="31.60" stroke="black" stroke-width="1"/>
<line x1="587.81" y1="31.60" x2="598.99" y2="31.60" stroke="black" stroke-width="1"/>
<line x1="598.99" y1="31.60" x2="598.99" y2="28.66" stroke="black" stroke-width="1"/>
<line x1="598.99" y1="28.66" x2="612.15" y2="28.66" stroke="black" stroke-width="1"/>
<line x1="612.15" y1="28.66" x2="612.15" y2="33.46" stroke="black" stroke-width="1"/>
<line x1="612.15" y1="33.46" x2="623.58" y2="33.46" stroke="black" stroke-width="1"/>
<line x1="623.58" y1="33.46" x2="623.58" y2="42.41" stroke="black" stroke-width="1"/>
<line x1="623.58" y1="42.41" x2="633.70" y2="42.41" stroke="black" stroke-width="1"/>
<line x1="633.70" y1="42.41" x2="633.70" y2="42.86" stroke="black" stroke-width="1"/>
<line x1="633.70" y1="42.86" x2="646.24" y2="42.86" stroke="black" stroke-width="1"/>
<line x1="646.24" y1="42.86" x2="646.24" y2="50.77" stroke="black" stroke-width="1"/>
<line x1="646.24" y1="50.77" x2="656.36" y2="50.77" stroke="black" stroke-width="1"/>
<line x1="656.36" y1="50.77" x2="656.36" y2="51.67" stroke="black" stroke-width="1"/>
<line x1="656.36" y1="51.67" x2="668.90" y2="51.67" stroke="black" stroke-width="1"/>
<line x1="668.90" y1="51.67" x2="668.90" y2="57.00" stroke="black" stroke-width="1"/>
<line x1="668.90" y1="57.00" x2="679.83" y2="57.00" stroke="black" stroke-width="1"/>
<line x1="679.83" y1="57.00" x2="679.83" y2="56.79" stroke="black" stroke-width="1"/>
<line x1="679.83" y1="56.79" x2="693.13" y2="56.79" stroke="black" stroke-width="1"/>
<line x1="693.13" y1="56.79" x2="693.13" y2="61.91" stroke="black" stroke-width="1"/>
<line x1="693.13" y1="61.91" x2="704.26" y2="61.91" stroke="black" stroke-width="1"/>
<line x1="704.26" y1="61.91" x2="704.26" y2="69.91" stroke="black" stroke-width="1"/>
<line x1="704.26" y1="69.91" x2="713.96" y2="69.91" stroke="black" stroke-width="1"/>
<line x1="713.96" y1="69.91" x2="713.96" y2="75.25" stroke="black" stroke-width="1"/>
<line x1="713.96" y1="75.25" x2="724.90" y2="75.25" stroke="black" stroke-width="1"/>
<line x1="724.90" y1="75.25" x2="724.90" y2="83.78" stroke="black" stroke-width="1"/>
<line x1="724.90" y1="83.78" x2="734.07" y2="83.78" stroke="black" stroke-width="1"/>
<line x1="734.07" y1="83.78" x2="734.07" y2="87.27" stroke="black" stroke-width="1"/>
<line x1="734.07" y1="87.27" x2="746.07" y2="87.27" stroke="black" stroke-width="1"/>
<line x1="746.07" y1="87.27" x2="746.07" y2="98.11" stroke="black" stroke-width="1"/>
<line x1="746.07" y1="98.11" x2="753.63" y2="98.11" stroke="black" stroke-width="1"/>
<line x1="753.63" y1="98.11" x2="753.63" y2="97.72" stroke="black" stroke-width="1"/>
<line x1="753.63" y1="97.72" x2="768.35" y2="97.72" stroke="black" stroke-width="1"/>
<line x1="768.35" y1="97.72" x2="768.35" y2="105.89" stroke="black" stroke-width="1"/>
<line x1="768.35" y1="105.89" x2="777.59" y2="105.89" stroke="black" stroke-width="1"/>
<line x1="777.59" y1="105.89" x2="777.59" y2="112.38" stroke="black" stroke-width="1"/>
<line x1="777.59" y1="112.38" x2="787.98" y2="112.38" stroke="black" stroke-width="1"/>
<line x1="787.98" y1="112.38" x2="787.98" y2="124.79" stroke="black" stroke-width="1"/>
<line x1="787.98" y1="124.79" x2="793.80" y2="124.79" stroke="black" stroke-width="1"/>
<line x1="793.80" y1="124.79" x2="793.80" y2="131.22" stroke="black" stroke-width="1"/>
<line x1="793.80" y1="131.22" x2="804.14" y2="131.22" stroke="black" stroke-width="1"/>
<line x1="804.14" y1="131.22" x2="804.14" y2="134.93" stroke="black" stroke-width="1"/>
<line x1="804.14" y1="134.93" x2="816.96" y2="134.93" stroke="black" stroke-width="1"/>
<line x1="816.96" y1="134.93" x2="816.96" y2="145.08" stroke="black" stroke-width="1"/>
<line x1="816.96" y1="145.08" x2="824.28" y2="145.08" stroke="black" stroke-width="1"/>
<line x1="824.28" y1="145.08" x2="824.28" y2="153.49" stroke="black" stroke-width="1"/>
<line x1="824.28" y1="153.49" x2="833.08" y2="153.49" stroke="black" stroke-width="1"/>
<line x1="833.08" y1="153.49" x2="833.08" y2="165.40" stroke="black" stroke-width="1"/>
<line x1="833.08" y1="165.40" x2="838.36" y2="165.40" stroke="black" stroke-width="1"/>
<line x1="838.36" y1="165.40" x2="838.36" y2="167.92" stroke="black" stroke-width="1"/>
<line x1="838.36" y1="167.92" x2="853.28" y2="167.92" stroke="black" stroke-width="1"/>
<line x1="853.28" y1="167.92" x2="853.28" y2="179.78" stroke="black" stroke-width="1"/>
<line x1="853.28" y1="179.78" x2="858.44" y2="179.78" stroke="black" stroke-width="1"/>
<line x1="858.44" y1="179.78" x2="858.44" y2="192.49" stroke="black" stroke-width="1"/>
<line x1="858.44" y1="192.49" x2="862.27" y2="192.49" stroke="black" stroke-width="1"/>
<line x1="862.27" y1="192.49" x2="862.27" y2="198.14" stroke="black" stroke-width="1"/>
<line x1="862.27" y1="198.14" x2="874.45" y2="198.14" stroke="black" stroke-width="1"/>
<line x1="874.45" y1="198.14" x2="874.45" y2="207.85" stroke="black" stroke-width="1"/>
<line x1="874.45" y1="207.85" x2="881.81" y2="207.85" stroke="black" stroke-width="1"/>
<line x1="881.81" y1="207.85" x2="881.81" y2="217.42" stroke="black" stroke-width="1"/>
<line x1="881.81" y1="217.42" x2="889.36" y2="217.42" stroke="black" stroke-width="1"/>
<line x1="889.36" y1="217.42" x2="889.36" y2="228.72" stroke="black" stroke-width="1"/>
<line x1="889.36" y1="228.72" x2="894.43" y2="228.72" stroke="black" stroke-width="1"/>
<line x1="894.43" y1="228.72" x2="894.43" y2="235.49" stroke="black" stroke-width="1"/>
<line x1="894.43" y1="235.49" x2="906.27" y2="235.49" stroke="black" stroke-width="1"/>
<line x1="906.27" y1="235.49" x2="906.27" y2="246.29" stroke="black" stroke-width="1"/>
<line x1="906.27" y1="246.29" x2="912.14" y2="246.29" stroke="black" stroke-width="1"/>
<line x1="912.14" y1="246.29" x2="912.14" y2="257.51" stroke="black" stroke-width="1"/>
<line x1="912.14" y1="257.51" x2="917.24" y2="257.51" stroke="black" stroke-width="1"/>
<line x1="917.24" y1="257.51" x2="917.24" y2="271.49" stroke="black" stroke-width="1"/>
<line x1="917.24" y1="271.49" x2="917.17" y2="271.49" stroke="black" stroke-width="1"/>
<line x1="917.17" y1="271.49" x2="917.17" y2="280.50" stroke="black" stroke-width="1"/>
<line x1="917.17" y1="280.50" x2="925.99" y2="280.50" stroke="black" stroke-width="1"/>
<line x1="925.99" y1="280.50" x2="925.99" y2="290.10" stroke="black" stroke-width="1"/>
<line x1="925.99" y1="290.10" x2="934.02" y2="290.10" stroke="black" stroke-width="1"/>
<line x1="934.02" y1="290.10" x2="934.02" y2="301.54" stroke="black" stroke-width="1"/>
<line x1="934.02" y1="301.54" x2="938.37" y2="301.54" stroke="black" stroke-width="1"/>
<line x1="938.37" y1="301.54" x2="938.37" y2="312.62" stroke="black" stroke-width="1"/>
<line x1="938.37" y1="312.62" x2="943.46" y2="312.62" stroke="black" stroke-width="1"/>
<line x1="943.46" y1="312.62" x2="943.46" y2="323.17" stroke="black" stroke-width="1"/>
<line x1="943.46" y1="323.17" x2="949.95" y2="323.17" stroke="black" stroke-width="1"/>
<line x1="949.95" y1="323.17" x2="949.95" y2="335.91" stroke="black" stroke-width="1"/>
<line x1="949.95" y1="335.91" x2="950.77" y2="335.91" stroke="black" stroke-width="1"/>
<line x1="950.77" y1="335.91" x2="950.77" y2="346.56" stroke="black" stroke-width="1"/>
<line x1="950.77" y1="346.56" x2="957.23" y2="346.56" stroke="black" stroke-width="1"/>
<line x1="957.23" y1="346.56" x2="957.23" y2="358.74" stroke="black" stroke-width="1"/>
<line x1="957.23" y1="358.74" x2="959.20" y2="358.74" stroke="black" stroke-width="1"/>
<line x1="959.20" y1="358.74" x2="959.20" y2="370.29" stroke="black" stroke-width="1"/>
<line x1="959.20" y1="370.29" x2="963.09" y2="370.29" stroke="black" stroke-width="1"/>
<line x1="963.09" y1="370.29" x2="963.09" y2="383.07" stroke="black" stroke-width="1"/>
<line x1="963.09" y1="383.07" x2="962.24" y2="383.07" stroke="black" stroke-width="1"/>
<line x1="962.24" y1="383.07" x2="962.24" y2="394.11" stroke="black" stroke-width="1"/>
<line x1="962.24" y1="394.11" x2="968.18" y2="394.11" stroke="black" stroke-width="1"/>
<line x1="968.18" y1="394.11" x2="968.18" y2="406.96" stroke="black" stroke-width="1"/>
<line x1="968.18" y1="406.96" x2="965.91" y2="406.96" stroke="black" stroke-width="1"/>
<line x1="965.91" y1="406.96" x2="965.91" y2="418.11" stroke="black" stroke-width="1"/>
<line x1="965.91" y1="418.11" x2="972.06" y2="418.11" stroke="black" stroke-width="1"/>
<line x1="972.06" y1="418.11" x2="972.06" y2="429.35" stroke="black" stroke-width="1"/>
<line x1="972.06" y1="429.35" x2="979.06" y2="429.35" stroke="black" stroke-width="1"/>
<line x1="979.06" y1="429.35" x2="979.06" y2="441.41" stroke="black" stroke-width="1"/>
<line x1="979.06" y1="441.41" x2="981.44" y2="441.41" stroke="black" stroke-width="1"/>
<line x1="981.44" y1="441.41" x2="981.44" y2="454.49" stroke="black" stroke-width="1"/>
<line x1="981.44" y1="454.49" x2="973.81" y2="454.49" stroke="black" stroke-width="1"/>
<line x1="973.81" y1="454.49" x2="973.81" y2="466.06" stroke="black" stroke-width="1"/>
<line x1="973.81" y1="466.06" x2="981.17" y2="466.06" stroke="black" stroke-width="1"/>
<line x1="981.17" y1="466.06" x2="981.17" y2="478.35" stroke="black" stroke-width="1"/>
<line x1="981.17" y1="478.35" x2="979.77" y2="478.35" stroke="black" stroke-width="1"/>
<line x1="979.77" y1="478.35" x2="979.77" y2="490.47" stroke="black" stroke-width="1"/>
<line x1="979.77" y1="490.47" x2="982.48" y2="490.47" stroke="black" stroke-width="1"/>
<line x1="982.48" y1="490.47" x2="982.48" y2="502.66" stroke="black" stroke-width="1"/>
</g>
</svg>
